<svg xmlns="http://www.w3.org/2000/svg" xml:space="preserve" width="655.359" height="655.359" style="shape-rendering:geometricPrecision;text-rendering:geometricPrecision;image-rendering:optimizeQuality;fill-rule:evenodd;clip-rule:evenodd" viewBox="0 0 6.827 6.827"><defs><style>.fil0{fill:#000;fill-rule:nonzero}</style></defs><g id="Layer_x0020_1"><g id="_461365936"><path id="_461366152" d="M1.619 1.405c.084.09.337.406.494.756.097.218.161.453.131.66-.043.301-.214.486-.422.567a.755.755 0 0 1-.619-.039.646.646 0 0 1-.35-.576c-.005-.363.182-.549.364-.729.162-.16.318-.315.301-.599v-.013a.053.053 0 0 1 .1-.027zm.397.8a3.288 3.288 0 0 0-.393-.643c-.024.253-.175.404-.331.558-.166.164-.337.334-.332.651.003.23.127.396.293.485a.647.647 0 0 0 .53.033c.175-.068.319-.225.356-.482.027-.186-.033-.4-.123-.603z" class="fil0"/><path id="_461365648" d="M3.604.914c.084.09.337.405.494.755.098.219.162.453.132.661-.044.3-.215.485-.423.567a.755.755 0 0 1-.619-.039.646.646 0 0 1-.35-.577c-.005-.362.182-.548.364-.728.164-.162.323-.32.3-.61V.94a.053.053 0 0 1 .102-.027zm.397.799a3.288 3.288 0 0 0-.393-.643c-.024.254-.175.404-.33.558-.167.165-.338.334-.333.652.004.23.127.396.293.485a.648.648 0 0 0 .53.033c.175-.069.32-.226.356-.483.027-.185-.033-.4-.123-.602z" class="fil0"/><path id="_461366320" d="M5.34 1.714c.084.09.337.406.494.756.098.218.162.453.132.661-.044.3-.215.485-.423.567a.755.755 0 0 1-.619-.039.646.646 0 0 1-.349-.577c-.006-.363.182-.548.363-.728.157-.156.31-.307.303-.576l-.002-.037a.053.053 0 0 1 .101-.027zm.397.8a3.288 3.288 0 0 0-.393-.643c-.023.253-.175.404-.33.558-.167.165-.338.334-.333.651.004.231.127.397.293.485a.647.647 0 0 0 .53.034c.175-.07.32-.226.356-.483.027-.186-.032-.4-.123-.603z" class="fil0"/><path id="_461366272" d="M2.105 3.45c.084.09.337.405.494.755.098.219.162.453.132.662-.043.3-.214.484-.423.566a.755.755 0 0 1-.619-.039.646.646 0 0 1-.349-.577c-.005-.362.182-.548.364-.728.16-.159.316-.313.301-.593v-.02a.053.053 0 0 1 .1-.026zm.397.799a3.288 3.288 0 0 0-.392-.643c-.024.254-.176.404-.331.559-.166.164-.337.333-.333.651.004.23.128.396.293.485a.647.647 0 0 0 .53.033c.176-.069.32-.226.357-.482.026-.186-.033-.4-.124-.603z" class="fil0"/><path id="_461366296" d="M3.707 3.284c.083.09.337.405.493.755.098.219.162.453.132.661-.043.3-.214.485-.423.567a.755.755 0 0 1-.619-.039.646.646 0 0 1-.349-.577c-.005-.362.182-.548.364-.728.155-.154.306-.303.302-.566 0-.014 0-.033-.002-.046a.053.053 0 0 1 .102-.027zm.396.799a3.288 3.288 0 0 0-.392-.643c-.024.254-.176.404-.331.559-.166.164-.337.333-.332.651.003.23.127.396.292.485a.648.648 0 0 0 .53.033c.176-.069.32-.226.357-.483.026-.185-.033-.4-.124-.602z" class="fil0"/><path id="_461366224" d="M5.127 3.91c.083.091.337.407.493.757.098.218.162.452.132.66-.043.301-.214.485-.422.567a.755.755 0 0 1-.619-.039.646.646 0 0 1-.35-.577c-.005-.362.182-.548.364-.728.159-.158.314-.31.302-.587a.47.47 0 0 0-.002-.025.053.053 0 0 1 .102-.027zm.396.8a3.288 3.288 0 0 0-.392-.643c-.024.254-.176.404-.331.559-.166.164-.337.334-.332.651.003.23.127.396.293.485a.647.647 0 0 0 .53.033c.175-.069.319-.225.356-.482.026-.186-.033-.4-.124-.603z" class="fil0"/></g></g><path d="M0 0h6.827v6.827H0z" style="fill:none"/></svg>